<svg width="73" height="44" viewBox="0 0 73 44" fill="none" xmlns="http://www.w3.org/2000/svg">
<path d="M4.52995e-06 43.328V0H17.024C27.904 0 33.408 6.592 33.408 15.424C33.408 19.648 30.784 24.96 26.432 27.264L34.624 43.328H23.36L12.416 20.992H17.024C20.8 20.992 23.168 18.688 23.168 15.424C23.168 12.224 20.8 9.6 17.024 9.6H10.176V43.328H4.52995e-06ZM60.5145 43.328C47.0105 43.328 37.1545 34.432 37.1545 21.632C37.1545 8.96 47.0745 0 60.5145 0H71.5865V9.6H60.9625C53.2825 9.6 47.5865 14.208 47.5865 21.632C47.5865 29.056 53.2825 33.728 60.9625 33.728H61.9865V20.16H72.1625V43.328H60.5145Z" fill="white"/>
</svg>
